<?xml version="1.0" encoding="UTF-8" standalone="no"?>
<svg
   xmlns:ns1="http://www.iki.fi/pav/software/textext/"
   xmlns:dc="http://purl.org/dc/elements/1.1/"
   xmlns:cc="http://creativecommons.org/ns#"
   xmlns:rdf="http://www.w3.org/1999/02/22-rdf-syntax-ns#"
   xmlns:svg="http://www.w3.org/2000/svg"
   xmlns="http://www.w3.org/2000/svg"
   xmlns:sodipodi="http://sodipodi.sourceforge.net/DTD/sodipodi-0.dtd"
   xmlns:inkscape="http://www.inkscape.org/namespaces/inkscape"
   width="2in"
   height="2in"
   viewBox="0 0 50.800001 50.800001"
   version="1.1"
   id="svg8"
   sodipodi:docname="favicon.svg"
   inkscape:version="1.0.2 (e86c8708, 2021-01-15)">
  <defs
     id="defs2" />
  <sodipodi:namedview
     id="base"
     pagecolor="#ffffff"
     bordercolor="#666666"
     borderopacity="1.0"
     inkscape:pageopacity="0.0"
     inkscape:pageshadow="2"
     inkscape:zoom="1.3065647"
     inkscape:cx="77.327629"
     inkscape:cy="114.23831"
     inkscape:document-units="mm"
     inkscape:current-layer="g876"
     inkscape:document-rotation="0"
     showgrid="false"
     inkscape:window-width="1252"
     inkscape:window-height="801"
     inkscape:window-x="0"
     inkscape:window-y="23"
     inkscape:window-maximized="0"
     units="in" />
  <metadata
     id="metadata5">
    <rdf:RDF>
      <cc:Work
         rdf:about="">
        <dc:format>image/svg+xml</dc:format>
        <dc:type
           rdf:resource="http://purl.org/dc/dcmitype/StillImage" />
        <dc:title></dc:title>
      </cc:Work>
    </rdf:RDF>
  </metadata>
  <g
     inkscape:label="Layer 1"
     inkscape:groupmode="layer"
     id="layer1">
    <g
       id="g876"
       transform="matrix(1.8075332,0,0,1.7908066,-24.792659,-9.7125822)">
      <g
         transform="matrix(2.9540814,0,0,2.9540814,19.5414,13.013544)"
         ns1:version="1.3.0"
         ns1:texconverter="pdflatex"
         ns1:pdfconverter="inkscape"
         ns1:text="$\\mu$"
         ns1:preamble="/Users/meiroseconnor/Library/Application Support/org.inkscape.Inkscape/config/inkscape/extensions/textext/default_packages.tex"
         ns1:scale="6.144037326590661"
         ns1:alignment="middle center"
         ns1:jacobian_sqrt="2.16748"
         id="g24"
         style="stroke:#50878f;stroke-opacity:1;fill:#50878f;fill-opacity:1">
        <defs
           id="id-74ef8c5f-5a40-4ff3-babf-f513689e6bb2">
          <g
             id="id-37170496-6728-4ff3-b788-03cd9d021321">
            <symbol
               overflow="visible"
               id="id-7f41c15e-7aa5-4c5d-a673-df243985b99c">
              <path
                 style="stroke:none;stroke-width:0"
                 d=""
                 id="id-8e0d39d7-6eec-4a82-953c-fc3cfb044dfb" />
            </symbol>
            <symbol
               overflow="visible"
               id="id-0afba06c-906e-42b7-b05e-13e19557070f">
              <path
                 style="stroke:none;stroke-width:0"
                 d="m 2.296875,-3.5 c 0.0625,-0.203125 0.15625,-0.59375 0.15625,-0.640625 0,-0.171875 -0.125,-0.265625 -0.296875,-0.265625 -0.015625,0 -0.296875,0.015625 -0.390625,0.359375 l -1.4375,5.765625 c -0.03125,0.125 -0.03125,0.140625 -0.03125,0.171875 0,0.140625 0.109375,0.265625 0.28125,0.265625 0.203125,0 0.328125,-0.1875 0.34375,-0.21875 C 0.96875,1.859375 1.09375,1.328125 1.46875,-0.203125 1.796875,0.0625 2.25,0.109375 2.4375,0.109375 c 0.703125,0 1.09375,-0.453125 1.328125,-0.734375 0.09375,0.453125 0.46875,0.734375 0.90625,0.734375 0.34375,0 0.578125,-0.234375 0.734375,-0.546875 0.171875,-0.359375 0.296875,-0.96875 0.296875,-0.984375 0,-0.109375 -0.09375,-0.109375 -0.125,-0.109375 -0.09375,0 -0.109375,0.046875 -0.140625,0.1875 -0.15625,0.640625 -0.34375,1.234375 -0.75,1.234375 -0.265625,0 -0.296875,-0.265625 -0.296875,-0.453125 0,-0.21875 0.109375,-0.6875 0.1875,-1.046875 L 4.859375,-2.6875 C 4.890625,-2.828125 5,-3.203125 5.03125,-3.359375 5.078125,-3.59375 5.1875,-3.96875 5.1875,-4.03125 c 0,-0.171875 -0.140625,-0.265625 -0.296875,-0.265625 -0.046875,0 -0.3125,0.015625 -0.390625,0.34375 l -0.46875,1.875 c -0.109375,0.5 -0.21875,0.90625 -0.25,1.015625 -0.015625,0.046875 -0.484375,0.953125 -1.296875,0.953125 -0.5,0 -0.734375,-0.328125 -0.734375,-0.875 0,-0.28125 0.0625,-0.5625 0.140625,-0.84375 z m 0,0"
                 id="id-ae501e59-29f0-41b9-86ff-7ec479c6b5f9" />
            </symbol>
          </g>
        </defs>
        <g
           id="id-90bbc9f1-ec14-4218-84d6-8cc408006c8d"
           transform="translate(-149.009,-130.359)"
           style="stroke:#50878f;stroke-opacity:1;fill:#50878f;fill-opacity:1">
          <g
             style="fill:#50878f;fill-opacity:1;stroke:#50878f;stroke-opacity:1"
             id="id-217a2d48-0688-4b07-a82a-a4b758d02b62">
            <g
               transform="translate(148.712,134.765)"
               id="g20"
               style="stroke:#50878f;stroke-opacity:1;fill:#50878f;fill-opacity:1">
              <path
                 style="stroke:#50878f;stroke-width:0;stroke-opacity:1;fill:#50878f;fill-opacity:1"
                 d="m 2.296875,-3.5 c 0.0625,-0.203125 0.15625,-0.59375 0.15625,-0.640625 0,-0.171875 -0.125,-0.265625 -0.296875,-0.265625 -0.015625,0 -0.296875,0.015625 -0.390625,0.359375 l -1.4375,5.765625 c -0.03125,0.125 -0.03125,0.140625 -0.03125,0.171875 0,0.140625 0.109375,0.265625 0.28125,0.265625 0.203125,0 0.328125,-0.1875 0.34375,-0.21875 C 0.96875,1.859375 1.09375,1.328125 1.46875,-0.203125 1.796875,0.0625 2.25,0.109375 2.4375,0.109375 c 0.703125,0 1.09375,-0.453125 1.328125,-0.734375 0.09375,0.453125 0.46875,0.734375 0.90625,0.734375 0.34375,0 0.578125,-0.234375 0.734375,-0.546875 0.171875,-0.359375 0.296875,-0.96875 0.296875,-0.984375 0,-0.109375 -0.09375,-0.109375 -0.125,-0.109375 -0.09375,0 -0.109375,0.046875 -0.140625,0.1875 -0.15625,0.640625 -0.34375,1.234375 -0.75,1.234375 -0.265625,0 -0.296875,-0.265625 -0.296875,-0.453125 0,-0.21875 0.109375,-0.6875 0.1875,-1.046875 L 4.859375,-2.6875 C 4.890625,-2.828125 5,-3.203125 5.03125,-3.359375 5.078125,-3.59375 5.1875,-3.96875 5.1875,-4.03125 c 0,-0.171875 -0.140625,-0.265625 -0.296875,-0.265625 -0.046875,0 -0.3125,0.015625 -0.390625,0.34375 l -0.46875,1.875 c -0.109375,0.5 -0.21875,0.90625 -0.25,1.015625 -0.015625,0.046875 -0.484375,0.953125 -1.296875,0.953125 -0.5,0 -0.734375,-0.328125 -0.734375,-0.875 0,-0.28125 0.0625,-0.5625 0.140625,-0.84375 z m 0,0"
                 id="id-def3492b-a67b-4288-8e9f-5d7651865387" />
            </g>
          </g>
        </g>
      </g>
      <path
         style="fill:none;stroke:#50878f;stroke-width:1.41477299;stroke-miterlimit:4;stroke-dasharray:none;stroke-opacity:1;paint-order:markers stroke fill;stop-color:#000000"
         id="path39"
         sodipodi:type="arc"
         sodipodi:cx="-1.8080293"
         sodipodi:cy="-34.831116"
         sodipodi:rx="13.186452"
         sodipodi:ry="12.808945"
         sodipodi:start="0"
         sodipodi:end="5.0538604"
         sodipodi:open="true"
         sodipodi:arc-type="arc"
         d="M 11.378423,-34.831116 A 13.186452,12.808945 0 0 1 2.1810833,-22.622343 13.186452,12.808945 0 0 1 -12.580941,-27.444418 13.186452,12.808945 0 0 1 -12.315098,-42.5707 13.186452,12.808945 0 0 1 2.6077695,-46.90051"
         transform="matrix(-0.56025597,0.82831953,-0.76813194,-0.64029159,0,0)" />
    </g>
  </g>
</svg>
