<?xml version="1.0" encoding="UTF-8" standalone="no"?>
<!-- Created with Inkscape (http://www.inkscape.org/) -->

<svg
   width="16"
   height="16"
   viewBox="0 0 16 16"
   version="1.1"
   id="svg1"
   inkscape:version="1.4.4 (1:1.4.4+202605061436+dcaf3e7d9e)"
   sodipodi:docname="drawing.svg"
   xmlns:inkscape="http://www.inkscape.org/namespaces/inkscape"
   xmlns:sodipodi="http://sodipodi.sourceforge.net/DTD/sodipodi-0.dtd"
   xmlns="http://www.w3.org/2000/svg"
   xmlns:svg="http://www.w3.org/2000/svg"
   xmlns:ns1="http://www.iki.fi/pav/software/textext/">
  <sodipodi:namedview
     id="namedview1"
     pagecolor="#ffffff"
     bordercolor="#666666"
     borderopacity="1.0"
     inkscape:showpageshadow="2"
     inkscape:pageopacity="0.0"
     inkscape:pagecheckerboard="0"
     inkscape:deskcolor="#d1d1d1"
     inkscape:document-units="px"
     inkscape:zoom="49.8125"
     inkscape:cx="8.0200753"
     inkscape:cy="7.5784191"
     inkscape:window-width="1920"
     inkscape:window-height="1003"
     inkscape:window-x="0"
     inkscape:window-y="40"
     inkscape:window-maximized="1"
     inkscape:current-layer="svg1" />
  <defs
     id="defs1" />
  <g
     inkscape:label="Layer 1"
     inkscape:groupmode="layer"
     id="layer1">
    <g
       transform="matrix(1.33333,0,0,1.33333,0.35878725,0.06846011)"
       ns1:version="1.10.2"
       ns1:texconverter="pdflatex"
       ns1:pdfconverter="inkscape"
       ns1:text="$\\mathfrak{R}$"
       ns1:preamble="/home/mei/.config/inkscape/extensions/textext/default_packages.tex"
       ns1:scale="1.0"
       ns1:alignment="middle center"
       ns1:stroke-to-path="0"
       ns1:jacobian_sqrt="1.33333"
       id="g2">
      <defs
         id="id-067dfbd8-ee66-49a3-b390-b31c1bc4a646">
        <g
           id="id-0b50929f-ef19-4d01-ba6f-80016be8070f">
          <g
             id="id-f1d80df6-c9c0-45b3-b359-b7ea1ece499d">
            <path
               d="M 4.3125,-3.46875 C 4.34375,-3.8125 4.34375,-4.171875 4.34375,-4.5 c 0,-0.125 -0.046875,-0.546875 -0.0625,-0.609375 0.359375,-0.609375 0.75,-1.15625 1.34375,-1.15625 0.734375,0 0.53125,1.265625 0.75,1.484375 0.09375,0.109375 0.234375,0.15625 0.359375,0.171875 L 5.453125,-3.875 C 5,-3.796875 4.515625,-3.578125 4.3125,-3.46875 Z m -0.140625,-2 c -0.25,-0.640625 -0.84375,-1.375 -1.546875,-1.375 -0.9375,0 -1.59375,0.625 -1.828125,0.859375 -0.28125,0.28125 -0.5,0.578125 -0.5,0.984375 0,0.53125 0.40625,0.890625 0.703125,1.328125 0.0625,0.078125 0.140625,0.15625 0.140625,0.265625 0,0.3125 -0.328125,0.640625 -0.640625,0.796875 L 0.640625,-2.5 C 1.234375,-2.796875 1.875,-3.1875 1.875,-3.828125 c 0,-0.5625 -0.890625,-1.109375 -0.890625,-1.515625 0,-0.609375 0.40625,-0.859375 0.96875,-0.859375 0.46875,0 0.921875,0.328125 1.171875,0.703125 0.390625,0.578125 0.40625,1.375 0.40625,1.84375 0,1.296875 -0.09375,2.453125 -1.15625,3.171875 C 2.140625,-0.734375 1.78125,-1.0625 1.4375,-1.0625 0.921875,-1.0625 0.515625,-0.375 0.265625,0 L 0.375,0.15625 c 0.1875,-0.234375 0.421875,-0.421875 0.734375,-0.421875 0.203125,0 0.578125,0.3125 0.796875,0.53125 0.5625,-0.453125 1.125,-1 1.6875,-1.453125 0.390625,-0.609375 0.578125,-1.28125 0.671875,-2.046875 0.265625,-0.078125 0.6875,-0.1875 0.921875,-0.1875 0.28125,0 0.609375,0.140625 0.828125,0.34375 0.109375,0.125 0.28125,0.3125 0.28125,1.296875 0,0.28125 -0.015625,0.578125 -0.03125,0.890625 l 0.640625,1.15625 1.328125,-1 v -0.15625 C 8.03125,-0.8125 7.703125,-0.6875 7.640625,-0.6875 7.40625,-0.6875 7.21875,-1.21875 7.125,-1.53125 7.03125,-1.796875 6.984375,-2.84375 6.953125,-3.5 c -0.25,-0.21875 -0.5,-0.375 -1.015625,-0.375 0.6875,-0.53125 1.453125,-0.90625 2.09375,-1.15625 l -0.0625,-0.125 c -0.125,0.015625 -0.25,0.046875 -0.375,0.046875 -0.65625,0 -0.5,-0.515625 -0.53125,-0.78125 -0.046875,-0.515625 -0.25,-0.953125 -0.796875,-0.953125 -0.875,0 -1.53125,0.65625 -2.0625,1.328125 z m 0,0"
               id="id-4a6079fd-685d-440d-a099-06739c619397" />
          </g>
        </g>
      </defs>
      <g
         fill="#000000"
         fill-opacity="1"
         id="id-a47b3e7f-f62a-4c0d-933e-da17a00b21cc"
         transform="translate(-148.978,-127.921)">
        <g
           transform="translate(148.712,134.765)"
           id="g1">
          <path
             d="M 4.3125,-3.46875 C 4.34375,-3.8125 4.34375,-4.171875 4.34375,-4.5 c 0,-0.125 -0.046875,-0.546875 -0.0625,-0.609375 0.359375,-0.609375 0.75,-1.15625 1.34375,-1.15625 0.734375,0 0.53125,1.265625 0.75,1.484375 0.09375,0.109375 0.234375,0.15625 0.359375,0.171875 L 5.453125,-3.875 C 5,-3.796875 4.515625,-3.578125 4.3125,-3.46875 Z m -0.140625,-2 c -0.25,-0.640625 -0.84375,-1.375 -1.546875,-1.375 -0.9375,0 -1.59375,0.625 -1.828125,0.859375 -0.28125,0.28125 -0.5,0.578125 -0.5,0.984375 0,0.53125 0.40625,0.890625 0.703125,1.328125 0.0625,0.078125 0.140625,0.15625 0.140625,0.265625 0,0.3125 -0.328125,0.640625 -0.640625,0.796875 L 0.640625,-2.5 C 1.234375,-2.796875 1.875,-3.1875 1.875,-3.828125 c 0,-0.5625 -0.890625,-1.109375 -0.890625,-1.515625 0,-0.609375 0.40625,-0.859375 0.96875,-0.859375 0.46875,0 0.921875,0.328125 1.171875,0.703125 0.390625,0.578125 0.40625,1.375 0.40625,1.84375 0,1.296875 -0.09375,2.453125 -1.15625,3.171875 C 2.140625,-0.734375 1.78125,-1.0625 1.4375,-1.0625 0.921875,-1.0625 0.515625,-0.375 0.265625,0 L 0.375,0.15625 c 0.1875,-0.234375 0.421875,-0.421875 0.734375,-0.421875 0.203125,0 0.578125,0.3125 0.796875,0.53125 0.5625,-0.453125 1.125,-1 1.6875,-1.453125 0.390625,-0.609375 0.578125,-1.28125 0.671875,-2.046875 0.265625,-0.078125 0.6875,-0.1875 0.921875,-0.1875 0.28125,0 0.609375,0.140625 0.828125,0.34375 0.109375,0.125 0.28125,0.3125 0.28125,1.296875 0,0.28125 -0.015625,0.578125 -0.03125,0.890625 l 0.640625,1.15625 1.328125,-1 v -0.15625 C 8.03125,-0.8125 7.703125,-0.6875 7.640625,-0.6875 7.40625,-0.6875 7.21875,-1.21875 7.125,-1.53125 7.03125,-1.796875 6.984375,-2.84375 6.953125,-3.5 c -0.25,-0.21875 -0.5,-0.375 -1.015625,-0.375 0.6875,-0.53125 1.453125,-0.90625 2.09375,-1.15625 l -0.0625,-0.125 c -0.125,0.015625 -0.25,0.046875 -0.375,0.046875 -0.65625,0 -0.5,-0.515625 -0.53125,-0.78125 -0.046875,-0.515625 -0.25,-0.953125 -0.796875,-0.953125 -0.875,0 -1.53125,0.65625 -2.0625,1.328125 z m 0,0"
             id="id-90c6bda0-fa1e-4f94-967f-a7463eb45a95" />
        </g>
      </g>
    </g>
  </g>
  <g
     transform="matrix(1.33333,0,0,1.33333,6.2501376,6.3311935)"
     ns1:version="1.10.2"
     ns1:texconverter="pdflatex"
     ns1:pdfconverter="inkscape"
     ns1:text="$\\mathfrak{D}$"
     ns1:preamble="/home/mei/.config/inkscape/extensions/textext/default_packages.tex"
     ns1:scale="1.0"
     ns1:alignment="middle center"
     ns1:stroke-to-path="0"
     ns1:jacobian_sqrt="1.33333"
     id="g5">
    <defs
       id="id-c66eb8cb-1e2d-4959-bf72-2413ff581b6b">
      <g
         id="id-81ee0628-8893-4ec1-b8ef-26dea6c9e06e">
        <g
           id="id-a760035d-51d1-4222-9e75-2a44e7570ee9">
          <path
             d="M 3.671875,-5.578125 C 2.984375,-5.21875 2.125,-4.640625 2.125,-3.875 c 0,0.1875 0.46875,0.78125 0.53125,0.859375 0.1875,0.203125 0.328125,0.453125 0.328125,0.734375 0,0.671875 -0.953125,0.953125 -1.59375,0.953125 -0.4375,0.375 -0.8125,0.8125 -1.078125,1.328125 l 0.171875,0.15625 c 0.234375,-0.375 0.609375,-0.796875 1.0625,-0.796875 0.625,0 1.390625,0.3125 2.015625,0.5625 0.328125,0.125 0.90625,0.34375 1.109375,0.34375 0.59375,0 1.59375,-1.046875 2.21875,-1.734375 C 7.234375,-2.359375 7.4375,-3.125 7.4375,-4.09375 7.4375,-5.265625 6.625,-6.359375 5.5,-6.671875 4.84375,-6.859375 4.328125,-6.875 3.71875,-6.875 c -0.90625,0 -1.9375,0.3125 -2.609375,0.96875 -0.578125,0.578125 -0.84375,1.328125 -0.84375,2.140625 l 0.21875,0.109375 c 0.03125,-0.59375 0.21875,-1.25 0.65625,-1.6875 0.59375,-0.59375 1.484375,-0.75 2.3125,-0.75 0.9375,0 1.875,0.21875 2.546875,0.890625 0.515625,0.515625 0.6875,1.25 0.6875,1.96875 0,0.640625 -0.0625,1.375 -0.421875,1.90625 -0.328125,0.515625 -0.53125,0.84375 -1.15625,0.84375 -0.203125,0 -0.9375,-0.265625 -1.375,-0.421875 C 3.3125,-1.0625 2.828125,-1.21875 2.40625,-1.3125 3.015625,-1.5625 3.875,-2.046875 3.875,-2.765625 3.875,-3.234375 2.984375,-4 2.984375,-4.40625 c 0,-0.375 0.578125,-0.890625 0.84375,-1.0625 z m 0,0"
             id="id-6f3f2806-d7c5-4419-af48-9e3ebf2a84f8" />
        </g>
      </g>
    </defs>
    <g
       fill="#000000"
       fill-opacity="1"
       id="id-a04bdb9c-a63c-4f96-8961-e7421521de61"
       transform="translate(-148.978,-127.89)">
      <g
         transform="translate(148.712,134.765)"
         id="g4">
        <path
           d="M 3.671875,-5.578125 C 2.984375,-5.21875 2.125,-4.640625 2.125,-3.875 c 0,0.1875 0.46875,0.78125 0.53125,0.859375 0.1875,0.203125 0.328125,0.453125 0.328125,0.734375 0,0.671875 -0.953125,0.953125 -1.59375,0.953125 -0.4375,0.375 -0.8125,0.8125 -1.078125,1.328125 l 0.171875,0.15625 c 0.234375,-0.375 0.609375,-0.796875 1.0625,-0.796875 0.625,0 1.390625,0.3125 2.015625,0.5625 0.328125,0.125 0.90625,0.34375 1.109375,0.34375 0.59375,0 1.59375,-1.046875 2.21875,-1.734375 C 7.234375,-2.359375 7.4375,-3.125 7.4375,-4.09375 7.4375,-5.265625 6.625,-6.359375 5.5,-6.671875 4.84375,-6.859375 4.328125,-6.875 3.71875,-6.875 c -0.90625,0 -1.9375,0.3125 -2.609375,0.96875 -0.578125,0.578125 -0.84375,1.328125 -0.84375,2.140625 l 0.21875,0.109375 c 0.03125,-0.59375 0.21875,-1.25 0.65625,-1.6875 0.59375,-0.59375 1.484375,-0.75 2.3125,-0.75 0.9375,0 1.875,0.21875 2.546875,0.890625 0.515625,0.515625 0.6875,1.25 0.6875,1.96875 0,0.640625 -0.0625,1.375 -0.421875,1.90625 -0.328125,0.515625 -0.53125,0.84375 -1.15625,0.84375 -0.203125,0 -0.9375,-0.265625 -1.375,-0.421875 C 3.3125,-1.0625 2.828125,-1.21875 2.40625,-1.3125 3.015625,-1.5625 3.875,-2.046875 3.875,-2.765625 3.875,-3.234375 2.984375,-4 2.984375,-4.40625 c 0,-0.375 0.578125,-0.890625 0.84375,-1.0625 z m 0,0"
           id="id-ac0b19f1-34ca-43eb-9163-9d6c27e05ad4" />
      </g>
    </g>
  </g>
</svg>
